# xmcd CD database file
#
# Track frame offsets:
#	150
#	24693
#	43938
#
# Disc length: 839 seconds
#
# Revision: 1
# Processed by: cddbd v1.5.1PL0 Copyright (c) Steve Scherf et al.
# Submitted via: CDex 1.51
#
DISCID=22034503
DTITLE=NOVA-ERA - Beginning 〜 Lunar Mind
DYEAR=2004
DGENRE=Metal
TTITLE0=HA・NA・BI・RA
TTITLE1=Rain Of Prayer
TTITLE2=Change Of My Life
EXTD=YEAR: 2004
EXTT0=
EXTT1=
EXTT2=
PLAYORDER=
